<svg xmlns="http://www.w3.org/2000/svg" width="250" height="250" viewBox="0 0 250 250" fill="none">
  <circle cx="124.5" cy="124.5" r="124.5" fill="#0047A0"/>
  <path d="M 20,55 L 19,59 L 17,62 L 17,64 L 14,69 L 13,75 L 12,76 L 12,81 L 11,82 L 11,97 L 12,98 L 12,103 L 13,104 L 13,107 L 14,108 L 15,113 L 23,127 L 31,136 L 32,136 L 39,142 L 51,148 L 57,149 L 58,150 L 61,150 L 62,151 L 82,151 L 83,150 L 91,149 L 106,142 L 113,136 L 114,136 L 122,127 L 122,126 L 125,123 L 125,122 L 128,119 L 128,118 L 135,111 L 136,111 L 143,105 L 153,100 L 155,100 L 159,98 L 162,98 L 163,97 L 167,97 L 168,96 L 185,96 L 186,97 L 191,97 L 192,98 L 200,100 L 213,107 L 225,118 L 225,119 L 228,122 L 228,123 L 232,128 L 235,134 L 235,136 L 237,139 L 237,142 L 238,143 L 238,146 L 239,147 L 239,152 L 240,153 L 240,166 L 239,167 L 239,172 L 238,173 L 238,176 L 237,177 L 236,182 L 235,183 L 241,171 L 241,169 L 242,168 L 242,166 L 243,165 L 243,163 L 245,159 L 245,156 L 246,155 L 246,152 L 247,151 L 247,147 L 248,146 L 248,141 L 249,140 L 249,110 L 248,109 L 248,103 L 247,102 L 247,98 L 246,97 L 245,90 L 244,89 L 244,87 L 243,86 L 241,78 L 238,73 L 238,71 L 235,65 L 233,63 L 231,58 L 229,56 L 227,52 L 224,49 L 224,48 L 206,29 L 205,29 L 201,25 L 200,25 L 197,22 L 191,19 L 189,17 L 184,15 L 182,13 L 178,11 L 176,11 L 166,6 L 163,6 L 162,5 L 160,5 L 156,3 L 152,3 L 151,2 L 147,2 L 146,1 L 141,1 L 140,0 L 109,0 L 108,1 L 98,2 L 97,3 L 90,4 L 89,5 L 87,5 L 86,6 L 78,8 L 73,11 L 71,11 L 65,14 L 63,16 L 60,17 L 58,19 L 55,20 L 53,22 L 52,22 L 48,26 L 47,26 L 44,29 L 43,29 L 29,43 L 29,44 Z" fill="#CD2E3A"/>
  <path d="M 12,69 L 11,73 L 8,78 L 8,80 L 5,86 L 5,89 L 3,93 L 3,97 L 2,98 L 2,101 L 1,102 L 1,108 L 0,109 L 0,139 L 1,140 L 1,146 L 2,147 L 3,156 L 4,157 L 4,159 L 5,160 L 5,162 L 6,163 L 8,171 L 10,174 L 10,176 L 14,184 L 16,186 L 17,189 L 19,191 L 20,194 L 23,197 L 25,201 L 42,219 L 43,219 L 48,224 L 52,226 L 55,229 L 58,230 L 65,235 L 71,238 L 73,238 L 78,241 L 80,241 L 81,242 L 83,242 L 84,243 L 86,243 L 90,245 L 93,245 L 94,246 L 97,246 L 98,247 L 102,247 L 103,248 L 108,248 L 109,249 L 140,249 L 141,248 L 151,247 L 152,246 L 159,245 L 160,244 L 162,244 L 163,243 L 171,241 L 176,238 L 178,238 L 184,235 L 186,233 L 194,229 L 200,224 L 201,224 L 206,219 L 207,219 L 219,207 L 219,206 L 227,197 L 228,193 L 234,182 L 234,180 L 235,179 L 235,177 L 237,173 L 237,168 L 238,167 L 238,152 L 237,151 L 237,146 L 236,145 L 236,142 L 235,141 L 234,136 L 226,122 L 218,113 L 217,113 L 210,107 L 198,101 L 192,100 L 191,99 L 188,99 L 187,98 L 167,98 L 166,99 L 158,100 L 143,107 L 136,113 L 135,113 L 127,122 L 127,123 L 124,126 L 124,127 L 121,130 L 121,131 L 114,138 L 113,138 L 106,144 L 96,149 L 94,149 L 90,151 L 87,151 L 86,152 L 82,152 L 81,153 L 63,153 L 62,152 L 58,152 L 57,151 L 49,149 L 36,142 L 24,131 L 24,130 L 21,127 L 21,126 L 17,121 L 14,115 L 14,113 L 12,110 L 12,107 L 11,106 L 11,103 L 10,102 L 10,97 L 9,96 L 9,83 L 10,82 L 10,77 L 11,76 L 11,73 L 13,69 Z" fill="#0047A0"/>
  <circle cx="124.5" cy="124.5" r="123.5" fill="none" stroke="rgba(0,0,0,0.3)" stroke-width="3"/>
</svg>
